<svg width="33" height="33" viewBox="0 0 33 33" fill="none" xmlns="http://www.w3.org/2000/svg">
<path d="M23.2768 15.3214H17.6786V9.72322C17.6786 9.56116 17.546 9.42857 17.3839 9.42857H15.6161C15.454 9.42857 15.3214 9.56116 15.3214 9.72322V15.3214H9.72323C9.56118 15.3214 9.42859 15.454 9.42859 15.6161V17.3839C9.42859 17.546 9.56118 17.6786 9.72323 17.6786H15.3214V23.2768C15.3214 23.4388 15.454 23.5714 15.6161 23.5714H17.3839C17.546 23.5714 17.6786 23.4388 17.6786 23.2768V17.6786H23.2768C23.4389 17.6786 23.5714 17.546 23.5714 17.3839V15.6161C23.5714 15.454 23.4389 15.3214 23.2768 15.3214Z" fill="white"/>
<path d="M16.5 0C7.38817 0 0 7.38817 0 16.5C0 25.6118 7.38817 33 16.5 33C25.6118 33 33 25.6118 33 16.5C33 7.38817 25.6118 0 16.5 0ZM16.5 30.2009C8.93505 30.2009 2.79911 24.065 2.79911 16.5C2.79911 8.93505 8.93505 2.79911 16.5 2.79911C24.065 2.79911 30.2009 8.93505 30.2009 16.5C30.2009 24.065 24.065 30.2009 16.5 30.2009Z" fill="white"/>
</svg>
