<svg width="33" height="35" viewBox="0 0 33 35" fill="none" xmlns="http://www.w3.org/2000/svg">
<path d="M13.0263 5.64474V6.07895H19.9737V5.64474C19.9737 4.72346 19.6077 3.83991 18.9563 3.18847C18.3048 2.53703 17.4213 2.17105 16.5 2.17105C15.5787 2.17105 14.6952 2.53703 14.0437 3.18847C13.3923 3.83991 13.0263 4.72346 13.0263 5.64474V5.64474ZM10.8553 6.07895V5.64474C10.8553 4.14766 11.45 2.7119 12.5086 1.65331C13.5672 0.594711 15.0029 0 16.5 0C17.9971 0 19.4328 0.594711 20.4914 1.65331C21.55 2.7119 22.1447 4.14766 22.1447 5.64474V6.07895H31.9145C32.2024 6.07895 32.4785 6.19332 32.6821 6.39689C32.8856 6.60047 33 6.87657 33 7.16447C33 7.45237 32.8856 7.72848 32.6821 7.93206C32.4785 8.13563 32.2024 8.25 31.9145 8.25H29.3813L27.6444 28.9671C27.5125 30.5403 26.7943 32.0066 25.6322 33.0752C24.4701 34.1439 22.9489 34.7369 21.3701 34.7368H11.6299C10.0513 34.7367 8.5303 34.1436 7.36838 33.0749C6.20646 32.0063 5.48837 30.5401 5.35642 28.9671L3.61958 8.25H1.08553C0.797627 8.25 0.521519 8.13563 0.317943 7.93206C0.114368 7.72848 0 7.45237 0 7.16447C0 6.87657 0.114368 6.60047 0.317943 6.39689C0.521519 6.19332 0.797627 6.07895 1.08553 6.07895H10.8553ZM7.51966 28.7856C7.6061 29.8162 8.07657 30.7768 8.83784 31.4769C9.59911 32.1771 10.5956 32.5657 11.6299 32.5658H21.3701C22.4045 32.5659 23.4013 32.1774 24.1627 31.4772C24.9242 30.7771 25.3948 29.8164 25.4812 28.7856L27.2024 8.25H5.79758L7.51966 28.7856V28.7856ZM14.3289 14.1118C14.3289 13.9693 14.3009 13.8281 14.2463 13.6964C14.1918 13.5647 14.1118 13.4451 14.011 13.3443C13.9102 13.2435 13.7905 13.1635 13.6588 13.1089C13.5271 13.0544 13.386 13.0263 13.2434 13.0263C13.1009 13.0263 12.9597 13.0544 12.828 13.1089C12.6963 13.1635 12.5766 13.2435 12.4758 13.3443C12.375 13.4451 12.2951 13.5647 12.2405 13.6964C12.186 13.8281 12.1579 13.9693 12.1579 14.1118V26.7039C12.1579 26.8465 12.186 26.9877 12.2405 27.1194C12.2951 27.2511 12.375 27.3707 12.4758 27.4715C12.5766 27.5723 12.6963 27.6523 12.828 27.7068C12.9597 27.7614 13.1009 27.7895 13.2434 27.7895C13.386 27.7895 13.5271 27.7614 13.6588 27.7068C13.7905 27.6523 13.9102 27.5723 14.011 27.4715C14.1118 27.3707 14.1918 27.2511 14.2463 27.1194C14.3009 26.9877 14.3289 26.8465 14.3289 26.7039V14.1118ZM19.7566 13.0263C20.3558 13.0263 20.8421 13.5126 20.8421 14.1118V26.7039C20.8421 26.9918 20.7277 27.268 20.5242 27.4715C20.3206 27.6751 20.0445 27.7895 19.7566 27.7895C19.4687 27.7895 19.1926 27.6751 18.989 27.4715C18.7854 27.268 18.6711 26.9918 18.6711 26.7039V14.1118C18.6711 13.5126 19.1574 13.0263 19.7566 13.0263Z" fill="white"/>
</svg>
