<svg width="36" height="36" viewBox="0 0 36 36" fill="none" xmlns="http://www.w3.org/2000/svg">
<path d="M4.22001 23.2L2.32001 31.4C2.25446 31.6997 2.25671 32.0104 2.32658 32.3091C2.39646 32.6079 2.53219 32.8873 2.72387 33.1269C2.91555 33.3665 3.15833 33.5603 3.43448 33.694C3.71063 33.8278 4.01318 33.8981 4.32001 33.9C4.46298 33.9144 4.60704 33.9144 4.75001 33.9L13 32L28.84 16.22L20 7.39999L4.22001 23.2Z" fill="#FFBD2E"/>
<path d="M33.82 8.32L27.92 2.42C27.5321 2.03407 27.0072 1.81741 26.46 1.81741C25.9128 1.81741 25.3879 2.03407 25 2.42L21.72 5.7L30.55 14.53L33.83 11.25C34.0219 11.0571 34.1739 10.8282 34.2773 10.5765C34.3807 10.3247 34.4335 10.0551 34.4326 9.78293C34.4316 9.51078 34.377 9.24149 34.2719 8.99047C34.1668 8.73944 34.0132 8.51161 33.82 8.32V8.32Z" fill="#FFBD2E"/>
</svg>
